HIERARCHY
ROOT RootJoint
{
    OFFSET   0.000000   0.000000   0.000000
    CHANNELS 6 Xposition Yposition Zposition Xrotation Yrotation Zrotation
    JOINT pelvis_lowerback
    {
        OFFSET   0.000000   0.093605   0.000000
        CHANNELS 3 Xrotation Yrotation Zrotation
        JOINT lowerback_torso
        {
            OFFSET   0.000000   0.100000   0.000000
            CHANNELS 3 Xrotation Yrotation Zrotation
            JOINT torso_head
            {
                OFFSET   0.000000   0.282350   0.000000
                CHANNELS 3 Xrotation Yrotation Zrotation
                End Site
                {
                    OFFSET   0.000000   0.192650   0.000000
                }
            }
            JOINT rTorso_Clavicle
            {
                OFFSET  -0.001000   0.157500   0.000000
                CHANNELS 3 Xrotation Yrotation Zrotation
                JOINT rShoulder
                {
                    OFFSET  -0.117647   0.000000   0.000000
                    CHANNELS 3 Xrotation Yrotation Zrotation
                    JOINT rElbow
                    {
                        OFFSET  -0.245000   0.000000   0.000000
                        CHANNELS 3 Xrotation Yrotation Zrotation
                        JOINT rWrist
                        {
                            OFFSET  -0.240000   0.000000   0.000000
                            CHANNELS 3 Xrotation Yrotation Zrotation
                            End Site
                            {
                                OFFSET  -0.116353  -0.002500   0.000000
                            }
                        }
                    }
                }
            }
            JOINT lTorso_Clavicle
            {
                OFFSET   0.001000   0.157500   0.000000
                CHANNELS 3 Xrotation Yrotation Zrotation
                JOINT lShoulder
                {
                    OFFSET   0.117647   0.000000   0.000000
                    CHANNELS 3 Xrotation Yrotation Zrotation
                    JOINT lElbow
                    {
                        OFFSET   0.245000   0.000000   0.000000
                        CHANNELS 3 Xrotation Yrotation Zrotation
                        JOINT lWrist
                        {
                            OFFSET   0.240000   0.000000   0.000000
                            CHANNELS 3 Xrotation Yrotation Zrotation
                            End Site
                            {
                                OFFSET   0.116353  -0.002500   0.000000
                            }
                        }
                    }
                }
            }
        }
    }
    JOINT rHip
    {
        OFFSET  -0.100000  -0.051395   0.000000
        CHANNELS 3 Xrotation Yrotation Zrotation
        JOINT rKnee
        {
            OFFSET   0.000000  -0.410000   0.000000
            CHANNELS 3 Xrotation Yrotation Zrotation
            JOINT rAnkle
            {
                OFFSET   0.000000  -0.390000   0.000000
                CHANNELS 3 Xrotation Yrotation Zrotation
                JOINT rToeJoint
                {
                    OFFSET   0.000000  -0.050000   0.130000
                    CHANNELS 3 Xrotation Yrotation Zrotation
                    End Site
                    {
                        OFFSET  -0.010000   0.002000   0.060000
                    }
                }
            }
        }
    }
    JOINT lHip
    {
        OFFSET   0.100000  -0.051395   0.000000
        CHANNELS 3 Xrotation Yrotation Zrotation
        JOINT lKnee
        {
            OFFSET   0.000000  -0.410000   0.000000
            CHANNELS 3 Xrotation Yrotation Zrotation
            JOINT lAnkle
            {
                OFFSET   0.000000  -0.390000   0.000000
                CHANNELS 3 Xrotation Yrotation Zrotation
                JOINT lToeJoint
                {
                    OFFSET   0.000000  -0.050000   0.130000
                    CHANNELS 3 Xrotation Yrotation Zrotation
                    End Site
                    {
                        OFFSET   0.010000   0.002000   0.060000
                    }
                }
            }
        }
    }
}
MOTION
Frames: 17
Frame Time:   0.008333
 -2.103310   0.677431   5.200567   6.604266  20.075607  -5.452150  70.445559   2.785494  -0.100181  -5.971276   2.850699  -2.719685   5.426854  -0.541143  -6.435110  -8.484593  40.995329  -6.210194 -29.256589  21.150062  23.176593  -0.000190  18.639784  -0.005681  -3.138947   3.205709 -13.155022 -10.446036 -33.174218   2.453763 -14.360897 -17.043808 -23.802139   0.010936 -25.586474  -0.006228  -4.036171  -2.942541  13.882537 -72.519903 -14.220652 -13.356052  92.842529  -0.039754  -0.034050  -7.868604  -2.863622  -0.831873 -21.344236  -0.002140  -0.008467 -70.453284   6.436047  18.722900  88.068468   0.000027  -0.000613 -20.903881   3.816213   3.797158  -7.494991   0.001356   0.008067
 -2.101053   0.670020   5.202828   6.526228  19.742222  -5.340091  71.117974   3.110979  -0.180890  -6.346623   3.172714  -2.742774   5.465647  -0.509383  -6.577850  -8.299082  41.467605  -6.569467 -29.748419  20.979468  22.963087  -0.000443  17.928188  -0.007677  -3.222153   3.381904 -12.973713 -10.447336 -33.592559   2.645386 -14.489556 -16.999384 -23.378177   0.012030 -24.983621  -0.006961  -4.118662  -2.997291  13.843293 -73.557237 -14.311193 -13.843333  94.492863  -0.040783  -0.032996  -8.294521  -2.924144  -0.863958 -20.699140  -0.002897  -0.010844 -71.228249   6.249501  19.070421  89.919177  -0.001694  -0.001053 -21.416700   3.619549   3.830034  -8.200663   0.001641   0.008420
 -2.098805   0.662455   5.205069   6.458901  19.404731  -5.248366  71.778660   3.432689  -0.259260  -6.705245   3.490716  -2.754034   5.489775  -0.476121  -6.708653  -8.121504  41.891808  -6.918745 -30.200661  20.799689  22.745586  -0.000683  17.245039  -0.009164  -3.327245   3.445540 -12.809473 -10.444262 -33.959015   2.837908 -14.599896 -16.939081 -22.967600   0.012595 -24.415770  -0.007552  -4.208474  -3.003121  13.782671 -74.563316 -14.390686 -14.322388  96.098486  -0.041106  -0.031932  -8.718602  -2.992833  -0.903717 -20.465652  -0.002708  -0.010135 -72.008393   6.077943  19.422801  91.723254  -0.002500  -0.001338 -21.983214   3.444721   3.832387  -8.780096   0.001431   0.008107
 -2.096570   0.654896   5.207272   6.401549  19.064154  -5.152301  72.427558   3.738880  -0.340562  -7.034470   3.794409  -2.760411   5.514195  -0.445395  -6.830422  -7.954321  42.273107  -7.250435 -30.619780  20.622011  22.530855  -0.001009  16.601506  -0.010173  -3.437936   3.462621 -12.672824 -10.451130 -34.280708   3.031866 -14.703932 -16.873751 -22.567250   0.012774 -23.888277  -0.007953  -4.303513  -2.969724  13.705114 -75.531776 -14.452171 -14.788684  97.641504  -0.040944  -0.030685  -9.139408  -3.051795  -0.945742 -20.600874  -0.001935  -0.007289 -72.765610   5.911875  19.763211  93.478537  -0.003206  -0.001620 -22.561578   3.284495   3.827009  -9.315167   0.001212   0.007705
 -2.094346   0.647450   5.209420   6.356682  18.717759  -5.047933  73.061635   4.030601  -0.422724  -7.332173   4.084043  -2.764225   5.541250  -0.417517  -6.944830  -7.795503  42.618275  -7.563374 -31.008622  20.449269  22.323283  -0.001436  15.997173  -0.010816  -3.548896   3.456582 -12.556049 -10.466315 -34.564216   3.225825 -14.801709 -16.806953 -22.178474   0.012628 -23.400943  -0.008226  -4.398060  -2.923485  13.625438 -76.459820 -14.492357 -15.236536  99.110461  -0.040319  -0.029266  -9.554861  -3.108834  -0.991360 -21.034073  -0.000869  -0.003258 -73.492479   5.754909  20.086690  95.169635  -0.003908  -0.001961 -23.136971   3.133507   3.813140  -9.817611   0.001002   0.007322
 -2.092126   0.640190   5.211506   6.325439  18.362878  -4.935107  73.678169   4.310000  -0.503653  -7.599133   4.361287  -2.765674   5.570833  -0.392245  -7.052259  -7.643099  42.932996  -7.856891 -31.369460  20.282768  22.126095  -0.001940  15.430364  -0.011196  -3.658396   3.435810 -12.450771 -10.488269 -34.814564   3.416878 -14.893661 -16.740322 -21.803685   0.012235 -22.951712  -0.008402  -4.490198  -2.872849  13.546119 -77.347207 -14.512503 -15.663082 100.500112  -0.039307  -0.027742  -9.962409  -3.164542  -1.039709 -21.699115   0.000241   0.001285 -74.185296   5.609335  20.392784  96.788747  -0.004622  -0.002368 -23.701824   2.991259   3.792407 -10.294560   0.000814   0.006987
 -2.089907   0.633164   5.213527   6.307670  17.997271  -4.814104  74.275061   4.578767  -0.581780  -7.836973   4.627568  -2.764609   5.602321  -0.369290  -7.152815  -7.495650  43.221742  -8.130758 -31.704314  20.123133  21.941422  -0.002482  14.899151  -0.011388  -3.765738   3.404344 -12.350580 -10.515401 -35.035771   3.602480 -14.980011 -16.674692 -21.444844   0.011662 -22.538148  -0.008499  -4.579383  -2.820570  13.467194 -78.194817 -14.515131 -16.067238 101.808789  -0.038001  -0.026180 -10.359734  -3.218509  -1.089707 -22.538017   0.001226   0.005885 -74.841574   5.476629  20.682374  98.332310  -0.005345  -0.002823 -24.251356   2.857514   3.766198 -10.752056   0.000653   0.006712
 -2.087652   0.625797   5.215723   6.118372  17.656752  -4.649187  74.966887   4.923281  -0.663487  -8.102962   4.922582  -2.757848   5.671757  -0.317732  -7.270456  -7.336884  43.486672  -8.399234 -32.106286  19.808525  21.875662  -0.003226  14.258157  -0.012951  -3.886447   3.409448 -12.227421 -10.534196 -35.312252   3.786953 -15.133621 -16.602909 -21.137016   0.012148 -22.024287  -0.008444  -4.658339  -2.822704  13.158927 -78.901945 -14.498364 -16.488170 103.175278  -0.037091  -0.025088 -10.514180  -3.240489  -1.192495 -24.393558   0.001948   0.014405 -75.386311   5.299281  21.006218 100.005094  -0.006084  -0.002644 -24.653670   2.729651   3.711126 -11.538605   0.000532   0.007104
 -2.085377   0.618312   5.217964   5.882816  17.330142  -4.461528  75.636306   5.268576  -0.747125  -8.345042   5.213966  -2.750775   5.729703  -0.264375  -7.383806  -7.168954  43.727491  -8.630395 -32.472526  19.494527  21.828917  -0.003958  13.646981  -0.013975  -4.024319   3.332830 -12.094783 -10.559891 -35.567938   3.953294 -15.280943 -16.535454 -20.848296   0.012459 -21.544259  -0.008104  -4.746446  -2.774304  12.895284 -79.561576 -14.453752 -16.913153 104.546324  -0.036255  -0.024093 -10.669580  -3.275730  -1.296272 -26.364878   0.001839   0.021799 -75.887637   5.134639  21.330304 101.683325  -0.006450  -0.002282 -25.028390   2.605883   3.652867 -12.374098   0.000355   0.007358
 -2.083095   0.610859   5.220196   5.630492  17.012588  -4.271747  76.276597   5.607403  -0.827380  -8.564856   5.499655  -2.743264   5.780460  -0.213399  -7.490539  -6.999704  43.952901  -8.836245 -32.810145  19.194806  21.795399  -0.004583  13.073088  -0.014487  -4.163232   3.228537 -11.947620 -10.589646 -35.798415   4.105640 -15.419953 -16.470840 -20.576769   0.012497 -21.101062  -0.007639  -4.835515  -2.708654  12.673015 -80.178108 -14.392127 -17.325683 105.884553  -0.035212  -0.023026 -10.828715  -3.319179  -1.399766 -28.424590   0.001015   0.027907 -76.366565   4.990587  21.645666 103.307399  -0.006303  -0.002028 -25.397512   2.485690   3.587995 -13.153715  -0.000020   0.007297
 -2.080806   0.603551   5.222387   5.379560  16.697100  -4.081421  76.886499   5.934419  -0.907553  -8.765471   5.776672  -2.737791   5.826632  -0.165577  -7.590482  -6.833905  44.166007  -9.022999 -33.123302  18.912738  21.770481  -0.005076  12.536368  -0.014591  -4.298406   3.117992 -11.791795 -10.622942 -36.007180   4.245072 -15.551407 -16.410283 -20.322048   0.012272 -20.693241  -0.007131  -4.923038  -2.636323  12.479549 -80.759539 -14.313329 -17.721046 107.169410  -0.033938  -0.021895 -10.991022  -3.367739  -1.502174 -30.537581  -0.000339   0.032776 -76.813981   4.854646  21.948597 104.880525  -0.006159  -0.001881 -25.756668   2.375791   3.524414 -13.918612  -0.000332   0.007169
 -2.078515   0.596464   5.224524   5.138648  16.382666  -3.895120  77.465970   6.249340  -0.986379  -8.948215   6.044599  -2.734396   5.869629  -0.120957  -7.683677  -6.673963  44.368027  -9.194611 -33.414677  18.648970  21.751254  -0.005432  12.035276  -0.014387  -4.428237   3.009257 -11.631764 -10.657938 -36.196026   4.372558 -15.674796 -16.353594 -20.083777   0.011823 -20.319159  -0.006626  -5.007088  -2.566549  12.305704 -81.309264 -14.221696 -18.097507 108.390582  -0.032447  -0.020719 -11.154997  -3.418621  -1.602498 -32.664024  -0.002037   0.036397 -77.231878   4.729189  22.239342 106.390352  -0.006002  -0.001822 -26.105652   2.277396   3.459654 -14.661367  -0.000604   0.006963
 -2.076225   0.589646   5.226597   4.911922  16.068726  -3.715516  78.015254   6.551868  -1.062972  -9.114385   6.302980  -2.732958   5.910268  -0.079397  -7.770306  -6.520862  44.559829  -9.353357 -33.686252  18.403144  21.736246  -0.005658  11.567867  -0.013962  -4.552226   2.905581 -11.470135 -10.694016 -36.367091   4.488247 -15.790668 -16.300710 -19.861873   0.011209 -19.976227  -0.006141  -5.087614  -2.499720  12.145169 -81.830011 -14.120263 -18.454507 109.543808  -0.030780  -0.019525 -11.318753  -3.470077  -1.699979 -34.764950  -0.003901   0.038809 -77.620630   4.614019  22.517511 107.830456  -0.005851  -0.001834 -26.443856   2.186414   3.394936 -15.379138  -0.000834   0.006730
 -2.073903   0.582773   5.228751   4.591100  15.773503  -3.464240  78.568454   6.908431  -1.148415  -9.224919   6.532853  -2.759360   5.948111  -0.023181  -7.812285  -6.433932  44.728718  -9.473386 -34.039854  18.044572  21.801848  -0.005905  11.067441  -0.014425  -4.691514   2.806849 -11.231418 -10.809293 -36.591120   4.582630 -15.937443 -16.283287 -19.745342   0.011101 -19.567638  -0.005506  -5.198582  -2.449309  11.827113 -82.289894 -13.958653 -18.857365 110.750073  -0.029759  -0.018871 -11.579522  -3.491643  -1.849984 -36.287552  -0.005416   0.037544 -77.856602   4.500069  22.777115 109.275777  -0.006380  -0.001482 -26.783954   2.039673   3.182783 -16.149902  -0.001731   0.006815
 -2.071611   0.575983   5.230907   4.257151  15.490189  -3.212001  79.094708   7.262095  -1.233168  -9.322218   6.755264  -2.789332   5.979433   0.033460  -7.850790  -6.345519  44.890776  -9.576178 -34.367482  17.703863  21.871264  -0.006068  10.595855  -0.014462  -4.837101   2.674311 -10.986526 -10.923104 -36.812521   4.658751 -16.079398 -16.274355 -19.642958   0.010834 -19.185455  -0.004856  -5.311383  -2.381582  11.514545 -82.722655 -13.786336 -19.257723 111.934467  -0.028748  -0.018193 -11.828889  -3.520868  -1.994169 -37.815091  -0.006771   0.036417 -78.068012   4.402646  23.034423 110.680182  -0.006487  -0.001109 -27.114154   1.892844   2.971506 -16.896230  -0.002508   0.006672
 -2.069375   0.569357   5.233040   3.932456  15.226148  -2.968577  79.600369   7.622875  -1.324483  -9.410947   6.995797  -2.823942   6.002425   0.085846  -7.882160  -6.228781  44.883664  -9.695945 -34.689911  17.432163  21.969468  -0.006014  10.172375  -0.013919  -4.966526   2.602781 -10.699611 -11.041698 -37.058272   4.717607 -16.225006 -16.290471 -19.555760   0.010400 -18.831630  -0.004218  -5.419228  -2.317218  11.226597 -83.133296 -13.605655 -19.648914 113.077557  -0.027549  -0.017388 -12.071028  -3.555519  -2.133283 -39.367619  -0.008055   0.035278 -78.275183   4.319990  23.280602 112.028061  -0.006229  -0.000774 -27.422798   1.751360   2.768711 -17.615284  -0.003142   0.006338
 -2.067262   0.563039   5.235158   3.607692  14.997134  -2.773861  80.096295   7.971838  -1.400386  -9.488608   7.223748  -2.849710   6.023168   0.137951  -7.911847  -6.124025  44.878528  -9.803441 -34.985666  17.167286  22.052626  -0.005837   9.774926  -0.013158  -5.088400   2.540676 -10.420822 -11.157304 -37.280249   4.770150 -16.360679 -16.301582 -19.469258   0.009814 -18.501929  -0.003648  -5.522137  -2.258808  10.971618 -83.557259 -13.382214 -19.992621 114.256476  -0.025691  -0.016384 -12.336352  -3.530499  -2.325110 -39.580264  -0.006880   0.028712 -78.452139   4.197848  23.518858 113.313171  -0.005816  -0.000315 -27.720572   1.604748   2.588828 -18.299325  -0.003468   0.005925
